# xmcd
#
# Track frame offsets:
# 150
# 18242
# 42879
# 63357
# 83277
# 105333
# 124212
# 143103
# 159968
# 181542
# 200270
#
# Disc length: 3049 seconds
#
# Revision: 1
# Processed by: cddbd v1.5.2PL0 Copyright (c) Steve Scherf et al.
# Submitted via: plextools 2.35
#
DISCID=770be70b
DTITLE=Groove Hogs - Blue Rhythms 
DYEAR=2004
DGENRE=Blues
TTITLE0=Groove Hogs - Soul Infatuation
TTITLE1=Groove Hogs - Long Gone
TTITLE2=Groove Hogs - Stop Pushin' On Me
TTITLE3=Groove Hogs - How Wrong Can You Be?
TTITLE4=Groove Hogs - Waiting On You
TTITLE5=Groove Hogs - I'll Be On My Way
TTITLE6=Groove Hogs - Blind Man
TTITLE7=Groove Hogs - Lovin' You Would Be A Crime
TTITLE8=Groove Hogs - Got To Get My Groove Back
TTITLE9=Groove Hogs - Shoulda Read The Rules
TTITLE10=Groove Hogs - Too Little Too Late
EXTD=issued by Pixel Max Entertainment
EXTT0=
EXTT1=
EXTT2=
EXTT3=
EXTT4=
EXTT5=
EXTT6=
EXTT7=
EXTT8=
EXTT9=
EXTT10=
PLAYORDER=
